  0
SECTION
  2
HEADER
  9
$ACADVER
  1
AC1014
  9
$HANDSEED
  5
FFFF
  9
$MEASUREMENT
 70
     1
  0
ENDSEC
  0
SECTION
  2
TABLES
  0
TABLE
  2
VPORT
  5
8
330
0
100
AcDbSymbolTable
 70
     4
  0
VPORT
  5
2E
330
8
100
AcDbSymbolTableRecord
100
AcDbViewportTableRecord
  2
*ACTIVE
 70
     0
 10
0.0
 20
0.0
 11
1.0
 21
1.0
 12
210.0
 22
148.5
 13
0.0
 23
0.0
 14
10.0
 24
10.0
 15
10.0
 25
10.0
 16
0.0
 26
0.0
 36
1.0
 17
0.0
 27
0.0
 37
0.0
 40
341.0
 41
1.24
 42
50.0
 43
0.0
 44
0.0
 50
0.0
 51
0.0
 71
     0
 72
   100
 73
     1
 74
     3
 75
     0
 76
     0
 77
     0
 78
     0
  0
ENDTAB
  0
TABLE
  2
LTYPE
  5
5
330
0
100
AcDbSymbolTable
 70
     1
  0
LTYPE
  5
14
330
5
100
AcDbSymbolTableRecord
100
AcDbLinetypeTableRecord
  2
BYBLOCK
 70
     0
  3

 72
    65
 73
     0
 40
0.0
  0
LTYPE
  5
15
330
5
100
AcDbSymbolTableRecord
100
AcDbLinetypeTableRecord
  2
BYLAYER
 70
     0
  3

 72
    65
 73
     0
 40
0.0
  0
LTYPE
  5
16
330
5
100
AcDbSymbolTableRecord
100
AcDbLinetypeTableRecord
  2
CONTINUOUS
 70
     0
  3
Solid line
 72
    65
 73
     0
 40
0.0
  0
ENDTAB
  0
TABLE
  2
LAYER
  5
2
100
AcDbSymbolTable
 70
1
  0
LAYER
  5
50
100
AcDbSymbolTableRecord
100
AcDbLayerTableRecord
  2
0
 70
0
  6
CONTINUOUS
  0
ENDTAB
  0
TABLE
  2
STYLE
  5
3
330
0
100
AcDbSymbolTable
 70
     1
  0
STYLE
  5
11
330
3
100
AcDbSymbolTableRecord
100
AcDbTextStyleTableRecord
  2
STANDARD
 70
     0
 40
0.0
 41
1.0
 50
0.0
 71
     0
 42
2.5
  3
txt
  4

  0
ENDTAB
  0
TABLE
  2
VIEW
  5
6
330
0
100
AcDbSymbolTable
 70
     0
  0
ENDTAB
  0
TABLE
  2
UCS
  5
7
330
0
100
AcDbSymbolTable
 70
     0
  0
ENDTAB
  0
TABLE
  2
APPID
  5
9
330
0
100
AcDbSymbolTable
 70
     2
  0
APPID
  5
12
330
9
100
AcDbSymbolTableRecord
100
AcDbRegAppTableRecord
  2
ACAD
 70
     0
  0
ENDTAB
  0
TABLE
  2
DIMSTYLE
  5
A
330
0
100
AcDbSymbolTable
 70
     1
  0
DIMSTYLE
105
27
330
A
100
AcDbSymbolTableRecord
100
AcDbDimStyleTableRecord
  2
ISO-25
 70
     0
  3

  4

  5

  6

  7

 40
1.0
 41
2.5
 42
0.625
 43
3.75
 44
1.25
 45
0.0
 46
0.0
 47
0.0
 48
0.0
140
2.5
141
2.5
142
0.0
143
0.03937007874016
144
1.0
145
0.0
146
1.0
147
0.625
 71
     0
 72
     0
 73
     0
 74
     0
 75
     0
 76
     0
 77
     1
 78
     8
170
     0
171
     3
172
     1
173
     0
174
     0
175
     0
176
     0
177
     0
178
     0
270
     2
271
     2
272
     2
273
     2
274
     3
340
11
275
     0
280
     0
281
     0
282
     0
283
     0
284
     8
285
     0
286
     0
287
     3
288
     0
  0
ENDTAB
  0
TABLE
  2
BLOCK_RECORD
  5
1
330
0
100
AcDbSymbolTable
 70
     1
  0
BLOCK_RECORD
  5
1F
330
1
100
AcDbSymbolTableRecord
100
AcDbBlockTableRecord
  2
*MODEL_SPACE
  0
BLOCK_RECORD
  5
1B
330
1
100
AcDbSymbolTableRecord
100
AcDbBlockTableRecord
  2
*PAPER_SPACE
  0
ENDTAB
  0
ENDSEC
  0
SECTION
  2
BLOCKS
  0
BLOCK
  5
20
330
1F
100
AcDbEntity
  8
0
100
AcDbBlockBegin
  2
*MODEL_SPACE
 70
     0
 10
0.0
 20
0.0
 30
0.0
  3
*MODEL_SPACE
  1

  0
ENDBLK
  5
21
330
1F
100
AcDbEntity
  8
0
100
AcDbBlockEnd
  0
BLOCK
  5
1C
330
1B
100
AcDbEntity
 67
     1
  8
0
100
AcDbBlockBegin
  2
*PAPER_SPACE
  1

  0
ENDBLK
  5
1D
330
1B
100
AcDbEntity
 67
     1
  8
0
100
AcDbBlockEnd
  0
ENDSEC
  0
SECTION
  2
ENTITIES
  0
LWPOLYLINE
  5
100
100
AcDbEntity
  8
0
 62
7
100
AcDbPolyline
 90
101
 70
0
 10
71.621159
 20
103.115085
 30
0.0
 10
72.680246
 20
104.630962
 30
0.0
 10
73.841875
 20
106.070129
 30
0.0
 10
75.077091
 20
107.446976
 30
0.0
 10
76.369432
 20
108.770369
 30
0.0
 10
77.709347
 20
110.045610
 30
0.0
 10
79.091711
 20
111.275072
 30
0.0
 10
80.514244
 20
112.457552
 30
0.0
 10
81.978424
 20
113.587524
 30
0.0
 10
83.491682
 20
114.650368
 30
0.0
 10
85.077133
 20
115.602142
 30
0.0
 10
87.386499
 20
116.803356
 30
0.0
 10
89.712933
 20
117.971014
 30
0.0
 10
92.077489
 20
119.059446
 30
0.0
 10
94.499410
 20
120.012584
 30
0.0
 10
96.985720
 20
120.781998
 30
0.0
 10
99.525585
 20
121.348170
 30
0.0
 10
102.101018
 20
121.725504
 30
0.0
 10
104.694558
 20
121.946678
 30
0.0
 10
107.295583
 20
122.046825
 30
0.0
 10
109.898397
 20
122.055489
 30
0.0
 10
114.251367
 20
121.302323
 30
0.0
 10
118.572952
 20
120.388603
 30
0.0
 10
122.818536
 20
119.173038
 30
0.0
 10
126.926207
 20
117.552608
 30
0.0
 10
130.826778
 20
115.483273
 30
0.0
 10
134.465723
 20
112.982629
 30
0.0
 10
137.818676
 20
110.109330
 30
0.0
 10
140.889934
 20
106.935572
 30
0.0
 10
143.701158
 20
103.528836
 30
0.0
 10
146.281594
 20
99.943666
 30
0.0
 10
146.127428
 20
96.767825
 30
0.0
 10
145.973250
 20
93.591784
 30
0.0
 10
145.819077
 20
90.415824
 30
0.0
 10
145.664913
 20
87.240056
 30
0.0
 10
145.510752
 20
84.064325
 30
0.0
 10
145.356586
 20
80.888490
 30
0.0
 10
145.202422
 20
77.712722
 30
0.0
 10
145.048264
 20
74.537042
 30
0.0
 10
144.894094
 20
71.361150
 30
0.0
 10
144.739933
 20
68.185453
 30
0.0
 10
142.648703
 20
65.904223
 30
0.0
 10
140.465951
 20
63.710718
 30
0.0
 10
138.173674
 20
61.632440
 30
0.0
 10
135.754711
 20
59.702660
 30
0.0
 10
133.200371
 20
57.956204
 30
0.0
 10
130.517474
 20
56.415531
 30
0.0
 10
127.729403
 20
55.073561
 30
0.0
 10
124.870377
 20
53.889755
 30
0.0
 10
121.972414
 20
52.803512
 30
0.0
 10
119.060270
 20
51.755754
 30
0.0
 10
119.051465
 20
51.196347
 30
0.0
 10
119.042660
 20
50.636907
 30
0.0
 10
119.033854
 20
50.077311
 30
0.0
 10
119.025049
 20
49.518166
 30
0.0
 10
119.016244
 20
48.958698
 30
0.0
 10
119.007438
 20
48.399229
 30
0.0
 10
118.998633
 20
47.840003
 30
0.0
 10
118.989828
 20
47.280748
 30
0.0
 10
118.981022
 20
46.721226
 30
0.0
 10
118.972217
 20
46.161726
 30
0.0
 10
116.496733
 20
46.311487
 30
0.0
 10
114.021097
 20
46.461259
 30
0.0
 10
111.545522
 20
46.611026
 30
0.0
 10
109.070098
 20
46.760785
 30
0.0
 10
106.594698
 20
46.910543
 30
0.0
 10
104.119499
 20
47.060287
 30
0.0
 10
101.643790
 20
47.210063
 30
0.0
 10
99.168433
 20
47.359818
 30
0.0
 10
96.692912
 20
47.509582
 30
0.0
 10
94.217546
 20
47.659338
 30
0.0
 10
94.261593
 20
48.187912
 30
0.0
 10
94.305645
 20
48.716517
 30
0.0
 10
94.349708
 20
49.245269
 30
0.0
 10
94.393735
 20
49.773594
 30
0.0
 10
94.437787
 20
50.302225
 30
0.0
 10
94.481839
 20
50.830855
 30
0.0
 10
94.525874
 20
51.359257
 30
0.0
 10
94.569909
 20
51.887690
 30
0.0
 10
94.613967
 20
52.416371
 30
0.0
 10
94.658022
 20
52.945033
 30
0.0
 10
91.794008
 20
54.235062
 30
0.0
 10
88.967587
 20
55.604424
 30
0.0
 10
86.190949
 20
57.072208
 30
0.0
 10
83.483334
 20
58.663363
 30
0.0
 10
80.873560
 20
60.410285
 30
0.0
 10
78.404141
 20
62.350218
 30
0.0
 10
76.126916
 20
64.511863
 30
0.0
 10
74.067721
 20
66.882744
 30
0.0
 10
72.155338
 20
69.374416
 30
0.0
 10
70.211685
 20
71.841391
 30
0.0
 10
70.352638
 20
74.968780
 30
0.0
 10
70.493599
 20
78.096367
 30
0.0
 10
70.634555
 20
81.223872
 30
0.0
 10
70.775505
 20
84.351187
 30
0.0
 10
70.916453
 20
87.478469
 30
0.0
 10
71.057406
 20
90.605853
 30
0.0
 10
71.198342
 20
93.732881
 30
0.0
 10
71.339292
 20
96.860199
 30
0.0
 10
71.480251
 20
99.987732
 30
0.0
 10
71.621201
 20
103.115085
 30
0.0
  0
ENDSEC
  0
SECTION
  2
OBJECTS
  0
DICTIONARY
  5
C
330
0
100
AcDbDictionary
  3
ACAD_GROUP
350
D
  3
ACAD_MLINESTYLE
350
17
  0
DICTIONARY
  5
D
330
C
100
AcDbDictionary
  0
DICTIONARY
  5
1A
330
C
100
AcDbDictionary
  0
DICTIONARY
  5
17
330
C
100
AcDbDictionary
  3
STANDARD
350
18
  0
DICTIONARY
  5
19
330
C
100
AcDbDictionary
  0
ENDSEC
  0
EOF
